<svg width="160" height="35" viewBox="0 0 160 35" fill="none" xmlns="http://www.w3.org/2000/svg">
<g clip-path="url(#clip0_30_38)">
<path d="M10.2911 26.7094C8.13768 26.7094 6.23474 26.2947 4.58215 25.4654C2.95461 24.6361 1.55242 23.3922 0.37558 21.7335L3.15492 18.6235C4.38184 20.3309 5.55868 21.514 6.68544 22.1725C7.8122 22.8311 9.15177 23.1604 10.7042 23.1604C11.6557 23.1604 12.5196 23.0141 13.2958 22.7214C14.072 22.4286 14.6854 22.0262 15.1361 21.514C15.5868 21.0017 15.8122 20.4163 15.8122 19.7577C15.8122 19.3187 15.7371 18.904 15.5868 18.5138C15.4366 18.1235 15.1987 17.7698 14.8732 17.4527C14.5728 17.1356 14.1722 16.8429 13.6714 16.5746C13.1956 16.3063 12.6323 16.0746 11.9812 15.8794C11.3302 15.6599 10.579 15.477 9.72769 15.3306C8.37558 15.0623 7.19874 14.7086 6.19718 14.2696C5.19561 13.8305 4.3568 13.2817 3.68074 12.6231C3.00469 11.9645 2.5039 11.2206 2.1784 10.3913C1.85289 9.53753 1.69013 8.58625 1.69013 7.53742C1.69013 6.14708 2.09076 4.9153 2.89201 3.84205C3.69327 2.76881 4.76995 1.92729 6.12206 1.31749C7.49921 0.683306 9.03909 0.366211 10.7418 0.366211C12.7699 0.366211 14.5352 0.75648 16.0376 1.53702C17.5649 2.29317 18.7668 3.403 19.6432 4.86651L16.7887 7.6106C16.0376 6.41539 15.1361 5.50069 14.0845 4.86651C13.0579 4.23232 11.9061 3.91523 10.6291 3.91523C9.65258 3.91523 8.80127 4.06158 8.07511 4.35428C7.34897 4.64698 6.77308 5.06164 6.34741 5.59827C5.94679 6.1105 5.74647 6.72029 5.74647 7.42766C5.74647 7.93989 5.84663 8.41553 6.04694 8.85458C6.24726 9.26927 6.54773 9.64729 6.94835 9.9888C7.37402 10.3059 7.93742 10.5986 8.63849 10.8669C9.33956 11.1108 10.1784 11.3303 11.1549 11.5255C12.5321 11.8182 13.759 12.1963 14.8357 12.6597C15.9123 13.0988 16.8263 13.6232 17.5775 14.233C18.3286 14.8428 18.892 15.5258 19.2676 16.2819C19.6682 17.038 19.8685 17.8552 19.8685 18.7333C19.8685 20.3675 19.4804 21.7823 18.7042 22.9775C17.928 24.1726 16.8263 25.0996 15.3991 25.7581C13.9718 26.3924 12.2691 26.7094 10.2911 26.7094ZM33.8413 26.7094C31.8131 26.7094 30.0103 26.2947 28.4328 25.4654C26.8804 24.6117 25.6535 23.4531 24.7521 21.9896C23.8757 20.5261 23.4375 18.843 23.4375 16.9405C23.4375 15.4282 23.6879 14.05 24.1887 12.8061C24.6894 11.5621 25.378 10.4888 26.2544 9.58634C27.1558 8.65942 28.2199 7.95211 29.4469 7.46424C30.6988 6.95201 32.0509 6.6959 33.5032 6.6959C34.7802 6.6959 35.9696 6.93982 37.0713 7.42766C38.173 7.89108 39.1245 8.53751 39.9258 9.36681C40.7521 10.1961 41.378 11.184 41.8037 12.3304C42.2544 13.4524 42.4672 14.6843 42.4422 16.0258L42.4047 17.6357H26.292L25.4281 14.6355H39.0619L38.4986 15.2574V14.3793C38.4234 13.5744 38.148 12.8549 37.6723 12.2207C37.1965 11.5864 36.5955 11.0864 35.8694 10.7206C35.1433 10.3547 34.3545 10.1717 33.5032 10.1717C32.1511 10.1717 31.0118 10.4279 30.0854 10.9401C29.1589 11.4279 28.4578 12.1597 27.9821 13.1354C27.5063 14.0866 27.2685 15.2697 27.2685 16.6844C27.2685 18.0259 27.5564 19.1967 28.1323 20.1968C28.7082 21.1724 29.522 21.9286 30.5737 22.4652C31.6253 23.0018 32.8397 23.2702 34.2169 23.2702C35.1934 23.2702 36.0948 23.1116 36.9211 22.7945C37.7724 22.4775 38.6863 21.9042 39.6629 21.0749L41.6159 23.7458C41.015 24.3312 40.2763 24.8434 39.4 25.2825C38.5486 25.7216 37.6347 26.0752 36.6582 26.3435C35.7067 26.5874 34.7677 26.7094 33.8413 26.7094ZM49.0877 26.3435V2.23219H52.9562V26.3435H49.0877ZM44.9938 10.7937V7.13495H57.5384V10.7937H44.9938ZM67.9718 26.7094C66.5696 26.7094 65.3427 26.3924 64.2911 25.7581C63.2644 25.1239 62.4632 24.2337 61.8873 23.0872C61.3365 21.9408 61.061 20.5749 61.061 18.9894V7.13495H64.9296V17.9649C64.9296 19.648 65.3302 20.9774 66.1314 21.953C66.9577 22.9287 68.097 23.4165 69.5493 23.4165C70.2755 23.4165 70.939 23.3068 71.5399 23.0872C72.1408 22.8433 72.6541 22.514 73.0798 22.0994C73.5305 21.6847 73.8811 21.1847 74.1315 20.5993C74.3818 20.0139 74.507 19.3796 74.507 18.6967V7.13495H78.376V26.3435H74.507V22.3189L75.1835 21.8798C74.8826 22.7823 74.3693 23.5995 73.6432 24.3312C72.9421 25.063 72.1033 25.6484 71.1268 26.0874C70.1502 26.5021 69.0986 26.7094 67.9718 26.7094ZM83.8017 34.3929V7.13495H87.7078V11.5255L87.1068 11.1962C87.2571 10.4644 87.683 9.76927 88.3839 9.11069C89.0847 8.42775 89.9365 7.87893 90.9378 7.46424C91.9647 7.02519 93.0163 6.80566 94.0928 6.80566C95.8708 6.80566 97.4483 7.23252 98.8252 8.08624C100.202 8.93998 101.291 10.1108 102.093 11.5987C102.894 13.0865 103.295 14.794 103.295 16.721C103.295 18.6235 102.894 20.3309 102.093 21.8432C101.317 23.3311 100.24 24.5142 98.8627 25.3923C97.4858 26.246 95.9331 26.6728 94.2054 26.6728C93.0539 26.6728 91.9391 26.4533 90.8627 26.0143C89.7863 25.5508 88.8721 24.9654 88.1209 24.258C87.3698 23.5507 86.9063 22.8189 86.7313 22.0628L87.7078 21.5505V34.3929H83.8017ZM93.5669 23.197C94.7185 23.197 95.7453 22.9165 96.6468 22.3555C97.5482 21.7944 98.2618 21.0261 98.7876 20.0504C99.3134 19.0748 99.5763 17.9649 99.5763 16.721C99.5763 15.477 99.3134 14.3793 98.7876 13.4281C98.2866 12.4524 97.5857 11.6841 96.6843 11.123C95.7829 10.562 94.744 10.2815 93.5669 10.2815C92.3899 10.2815 91.351 10.562 90.4496 11.123C89.5482 11.6596 88.8345 12.4158 88.3087 13.3915C87.7829 14.3671 87.52 15.477 87.52 16.721C87.52 17.9649 87.7829 19.0748 88.3087 20.0504C88.8345 21.0261 89.5482 21.7944 90.4496 22.3555C91.351 22.9165 92.3899 23.197 93.5669 23.197Z" fill="white"/>
<path d="M120.266 26.7089C118.213 26.7089 116.347 26.3796 114.67 25.721C112.992 25.0625 111.54 24.1355 110.313 22.9404C109.086 21.7452 108.134 20.3426 107.458 18.7328C106.807 17.1229 106.482 15.3789 106.482 13.5007C106.482 11.6225 106.82 9.87852 107.496 8.26865C108.197 6.65879 109.173 5.26845 110.426 4.09765C111.703 2.90245 113.192 1.97555 114.895 1.31697C116.598 0.658392 118.463 0.329102 120.491 0.329102C121.894 0.329102 123.233 0.51204 124.51 0.877919C125.787 1.2438 126.951 1.74383 128.003 2.37802C129.055 3.01221 129.918 3.74397 130.595 4.57329L127.102 8.15889C126.125 7.25639 125.086 6.56123 123.984 6.07339C122.882 5.56116 121.693 5.30504 120.416 5.30504C119.239 5.30504 118.15 5.51237 117.149 5.92703C116.172 6.3173 115.308 6.89051 114.557 7.64666C113.831 8.37842 113.255 9.2443 112.829 10.2444C112.429 11.2445 112.228 12.3299 112.228 13.5007C112.228 14.6472 112.441 15.7203 112.867 16.7204C113.318 17.7205 113.918 18.5986 114.67 19.3548C115.446 20.0865 116.347 20.6719 117.374 21.111C118.401 21.5257 119.502 21.733 120.679 21.733C121.505 21.733 122.281 21.611 123.008 21.3671C123.759 21.0987 124.41 20.7451 124.961 20.306C125.537 19.867 125.988 19.3548 126.313 18.7694C126.638 18.1839 126.801 17.5497 126.801 16.8668V15.9887L127.515 17.0131H120.078V12.4031H132.172C132.222 12.6714 132.26 13.0007 132.285 13.3909C132.309 13.7812 132.322 14.1593 132.322 14.5252C132.347 14.891 132.36 15.196 132.36 15.4399C132.36 17.0985 132.059 18.623 131.458 20.0133C130.857 21.3793 130.006 22.5623 128.904 23.5624C127.802 24.5624 126.513 25.3429 125.036 25.904C123.558 26.4406 121.969 26.7089 120.266 26.7089ZM133.885 26.343L144.213 0.731567H149.246L159.5 26.343H153.753L148.42 12.5494C148.27 12.1347 148.082 11.6225 147.857 11.0127C147.656 10.403 147.443 9.75653 147.218 9.07358C146.993 8.39064 146.78 7.7442 146.58 7.13443C146.405 6.50024 146.254 5.98801 146.129 5.59774L147.143 5.56116C146.993 6.09777 146.818 6.67099 146.617 7.28078C146.442 7.86619 146.241 8.47596 146.016 9.11017C145.816 9.74439 145.603 10.3542 145.378 10.9396C145.177 11.525 144.977 12.086 144.777 12.6226L139.481 26.343H133.885ZM138.692 20.9646L140.57 16.5009H152.551L154.467 20.9646H138.692Z" fill="url(#paint0_linear_30_38)"/>
</g>
<defs>
<linearGradient id="paint0_linear_30_38" x1="112.368" y1="23.0501" x2="150.78" y2="2.38929" gradientUnits="userSpaceOnUse">
<stop stop-color="#E37400"/>
<stop offset="1" stop-color="#F9AB00"/>
</linearGradient>
<clipPath id="clip0_30_38">
<rect width="160" height="34.3925" fill="white"/>
</clipPath>
</defs>
</svg>
